<svg width="25" height="25" viewBox="0 0 25 25" fill="none" xmlns="http://www.w3.org/2000/svg">
<path d="M20.0021 15.0603L19.0021 13.4003C18.7921 13.0303 18.6021 12.3303 18.6021 11.9203V9.39031C18.6021 7.04031 17.2221 5.01031 15.2321 4.06031C14.7121 3.14031 13.7521 2.57031 12.6521 2.57031C11.5621 2.57031 10.5821 3.16031 10.0621 4.09031C8.11205 5.06031 6.76205 7.07031 6.76205 9.39031V11.9203C6.76205 12.3303 6.57205 13.0303 6.36205 13.3903L5.35205 15.0603C4.95205 15.7303 4.86205 16.4703 5.11205 17.1503C5.35205 17.8203 5.92205 18.3403 6.66205 18.5903C8.60205 19.2503 10.6421 19.5703 12.6821 19.5703C14.7221 19.5703 16.7621 19.2503 18.7021 18.6003C19.4021 18.3703 19.9421 17.8403 20.2021 17.1503C20.4621 16.4603 20.3921 15.7003 20.0021 15.0603Z" fill="white"/>
<path d="M15.4898 20.5803C15.0698 21.7403 13.9598 22.5703 12.6598 22.5703C11.8698 22.5703 11.0898 22.2503 10.5398 21.6803C10.2198 21.3803 9.97984 20.9803 9.83984 20.5703C9.96984 20.5903 10.0998 20.6003 10.2398 20.6203C10.4698 20.6503 10.7098 20.6803 10.9498 20.7003C11.5198 20.7503 12.0998 20.7803 12.6798 20.7803C13.2498 20.7803 13.8198 20.7503 14.3798 20.7003C14.5898 20.6803 14.7998 20.6703 14.9998 20.6403C15.1598 20.6203 15.3198 20.6003 15.4898 20.5803Z" fill="white"/>
</svg>
